<svg xmlns="http://www.w3.org/2000/svg" viewBox="0 0 232.32 103.62"><defs><style>.cls-1{fill:#fcd100;}.cls-2{fill:#979797;}</style></defs><g id="Layer_2" data-name="Layer 2"><g id="Layer_1-2" data-name="Layer 1"><path class="cls-1" d="M93,89.22h5.46v14.4h8.46V89.22h7.38v14.4h8.46V89.17c.55,0,1.11,0,1.68,0,9.43,0,17.73-4,22.52-10.08A19.43,19.43,0,0,0,151.32,67a19.13,19.13,0,0,0-3.48-10.92c-1.8-2.62-4.51-4.38-7.23-5.92-1-.56-2-1-3-1.52a7.6,7.6,0,0,0,.71-.68,18.87,18.87,0,0,0,5.84-13.36,17.72,17.72,0,0,0-2.2-8.52,22,22,0,0,0-5.73-6.71,16,16,0,0,0-10-3.37h-3.46V0H114.3V16h-7.38V0H98.46V16H81V23.7h7.68s4.8-.48,4.8,4V76.14s.48,3-3.24,3H81v10H93M106.92,56.1h12.46a15.12,15.12,0,0,1,9.76,3.39,11.29,11.29,0,0,1,4.36,8.58,10.48,10.48,0,0,1-2.3,6.44,12.39,12.39,0,0,1-9.86,4.63H106.92Zm8-30a16.52,16.52,0,0,1,9.42,2.79c3.31,2.28,5.36,5.48,5.36,9a10.15,10.15,0,0,1-3,7l0,.05a12.31,12.31,0,0,1-9,3.71H106.92V26.1Z"/><path class="cls-2" d="M191.82,31.5V81.72a13.3,13.3,0,0,1-9,12.6,13.14,13.14,0,0,1-4.32.72h-7.74V87.12H177a5.85,5.85,0,0,0,5.85-5.85V32A5.85,5.85,0,0,0,177,26.1h-6.21V18.18h7.74a13.14,13.14,0,0,1,4.32.72,13.3,13.3,0,0,1,9,12.6Z"/><path class="cls-2" d="M232.32,31.5V81.72a13.3,13.3,0,0,1-9,12.6A13.14,13.14,0,0,1,219,95h-7.74V87.12h6.21a5.85,5.85,0,0,0,5.85-5.85V32a5.85,5.85,0,0,0-5.85-5.85h-6.21V18.18H219a13.14,13.14,0,0,1,4.32.72,13.3,13.3,0,0,1,9,12.6Z"/><path class="cls-2" d="M40.5,81.72V31.5a13.3,13.3,0,0,1,9-12.6,13.14,13.14,0,0,1,4.32-.72h7.74V26.1H55.35A5.85,5.85,0,0,0,49.5,32V81.27a5.85,5.85,0,0,0,5.85,5.85h6.21V95H53.82a13.14,13.14,0,0,1-4.32-.72,13.3,13.3,0,0,1-9-12.6Z"/><path class="cls-2" d="M0,81.72V31.5A13.3,13.3,0,0,1,9,18.9a13.14,13.14,0,0,1,4.32-.72h7.74V26.1H14.85A5.85,5.85,0,0,0,9,32V81.27a5.85,5.85,0,0,0,5.85,5.85h6.21V95H13.32A13.14,13.14,0,0,1,9,94.32a13.3,13.3,0,0,1-9-12.6Z"/></g></g></svg>